name rise32.9588peak41.5061fall63.4684.mot
datacolumns 19
datarows 27
range 7.27830900000000 7.32163900000000
endheader
time	ground_force1_vx	ground_force1_vy	ground_force1_vz	ground_force1_px	ground_force1_py	ground_force1_pz	ground_force2_vx	ground_force2_vy	ground_force2_vz	ground_force2_px	ground_force2_py	ground_force2_pz	ground_torque1_x	ground_torque1_y	ground_torque1_z	ground_torque2_x	ground_torque2_y	ground_torque2_z	
7.27830900000000	15.97764500000000	704.72992999999997	44.97441400000000	0.23137200000000	0.00000000000000	0.10820900000000	0.00000000000000	0.00000000000000	0.00000000000000	0.00000000000000	0.00000000000000	0.00000000000000	0.00000000000000	18.51054900000000	0.00000000000000	0.00000000000000	0.00000000000000	0.00000000000000	
7.27997200000000	15.66271500000000	704.85809800000004	44.96441300000000	0.23070000000000	0.00000000000000	0.10816700000000	0.00000000000000	0.00000000000000	0.00000000000000	0.00000000000000	0.00000000000000	0.00000000000000	0.00000000000000	18.53956000000000	0.00000000000000	0.00000000000000	0.00000000000000	0.00000000000000	
7.28164200000000	15.34252200000000	705.05375300000003	44.95871600000000	0.23001700000000	0.00000000000000	0.10812400000000	0.00000000000000	0.00000000000000	0.00000000000000	0.00000000000000	0.00000000000000	0.00000000000000	0.00000000000000	18.57128700000000	0.00000000000000	0.00000000000000	0.00000000000000	0.00000000000000	
7.28330600000000	15.01692500000000	705.31644100000005	44.95723900000000	0.22932100000000	0.00000000000000	0.10807900000000	0.00000000000000	0.00000000000000	0.00000000000000	0.00000000000000	0.00000000000000	0.00000000000000	0.00000000000000	18.60562600000000	0.00000000000000	0.00000000000000	0.00000000000000	0.00000000000000	
7.28497200000000	14.68580200000000	705.64563499999997	44.95988700000000	0.22861200000000	0.00000000000000	0.10803200000000	0.00000000000000	0.00000000000000	0.00000000000000	0.00000000000000	0.00000000000000	0.00000000000000	0.00000000000000	18.64247200000000	0.00000000000000	0.00000000000000	0.00000000000000	0.00000000000000	
7.28663600000000	14.34904800000000	706.04073400000004	44.96656400000000	0.22788900000000	0.00000000000000	0.10798300000000	0.00000000000000	0.00000000000000	0.00000000000000	0.00000000000000	0.00000000000000	0.00000000000000	0.00000000000000	18.68171900000000	0.00000000000000	0.00000000000000	0.00000000000000	0.00000000000000	
7.28830800000000	14.00658300000000	706.50106700000003	44.97716600000000	0.22715100000000	0.00000000000000	0.10793300000000	0.00000000000000	0.00000000000000	0.00000000000000	0.00000000000000	0.00000000000000	0.00000000000000	0.00000000000000	18.72325800000000	0.00000000000000	0.00000000000000	0.00000000000000	0.00000000000000	
7.28997800000000	13.65834700000000	707.02589000000000	44.99158400000000	0.22639700000000	0.00000000000000	0.10788200000000	0.00000000000000	0.00000000000000	0.00000000000000	0.00000000000000	0.00000000000000	0.00000000000000	0.00000000000000	18.76697900000000	0.00000000000000	0.00000000000000	0.00000000000000	0.00000000000000	
7.29164300000000	13.30430400000000	707.61439199999995	45.00970600000000	0.22562800000000	0.00000000000000	0.10782900000000	0.00000000000000	0.00000000000000	0.00000000000000	0.00000000000000	0.00000000000000	0.00000000000000	0.00000000000000	18.81276800000000	0.00000000000000	0.00000000000000	0.00000000000000	0.00000000000000	
7.29331100000000	12.94444200000000	708.26569800000004	45.03141600000000	0.22484200000000	0.00000000000000	0.10777400000000	0.00000000000000	0.00000000000000	0.00000000000000	0.00000000000000	0.00000000000000	0.00000000000000	0.00000000000000	18.86051200000000	0.00000000000000	0.00000000000000	0.00000000000000	0.00000000000000	
7.29497600000000	12.57877500000000	708.97886600000004	45.05659300000000	0.22403900000000	0.00000000000000	0.10771800000000	0.00000000000000	0.00000000000000	0.00000000000000	0.00000000000000	0.00000000000000	0.00000000000000	0.00000000000000	18.91009700000000	0.00000000000000	0.00000000000000	0.00000000000000	0.00000000000000	
7.29664000000000	12.20734000000000	709.75289099999998	45.08511800000000	0.22322000000000	0.00000000000000	0.10766000000000	0.00000000000000	0.00000000000000	0.00000000000000	0.00000000000000	0.00000000000000	0.00000000000000	0.00000000000000	18.96140800000000	0.00000000000000	0.00000000000000	0.00000000000000	0.00000000000000	
7.29831100000000	11.83020100000000	710.58670700000005	45.11686600000000	0.22238500000000	0.00000000000000	0.10760100000000	0.00000000000000	0.00000000000000	0.00000000000000	0.00000000000000	0.00000000000000	0.00000000000000	0.00000000000000	19.01432900000000	0.00000000000000	0.00000000000000	0.00000000000000	0.00000000000000	
7.29997700000000	11.44744800000000	711.47919000000002	45.15171300000000	0.22153300000000	0.00000000000000	0.10754000000000	0.00000000000000	0.00000000000000	0.00000000000000	0.00000000000000	0.00000000000000	0.00000000000000	0.00000000000000	19.06874200000000	0.00000000000000	0.00000000000000	0.00000000000000	0.00000000000000	
7.30163600000000	11.05919700000000	712.42915900000003	45.18953300000000	0.22066500000000	0.00000000000000	0.10747800000000	0.00000000000000	0.00000000000000	0.00000000000000	0.00000000000000	0.00000000000000	0.00000000000000	0.00000000000000	19.12453200000000	0.00000000000000	0.00000000000000	0.00000000000000	0.00000000000000	
7.30330500000000	10.66558800000000	713.43537400000002	45.23020300000000	0.21978200000000	0.00000000000000	0.10741500000000	0.00000000000000	0.00000000000000	0.00000000000000	0.00000000000000	0.00000000000000	0.00000000000000	0.00000000000000	19.18158100000000	0.00000000000000	0.00000000000000	0.00000000000000	0.00000000000000	
7.30496900000000	10.26678900000000	714.49654499999997	45.27359700000000	0.21888400000000	0.00000000000000	0.10735000000000	0.00000000000000	0.00000000000000	0.00000000000000	0.00000000000000	0.00000000000000	0.00000000000000	0.00000000000000	19.23977300000000	0.00000000000000	0.00000000000000	0.00000000000000	0.00000000000000	
7.30663700000000	9.86299000000000	715.61132699999996	45.31959300000000	0.21797200000000	0.00000000000000	0.10728300000000	0.00000000000000	0.00000000000000	0.00000000000000	0.00000000000000	0.00000000000000	0.00000000000000	0.00000000000000	19.29899000000000	0.00000000000000	0.00000000000000	0.00000000000000	0.00000000000000	
7.30830200000000	9.45440600000000	716.77832699999999	45.36807000000000	0.21704700000000	0.00000000000000	0.10721500000000	0.00000000000000	0.00000000000000	0.00000000000000	0.00000000000000	0.00000000000000	0.00000000000000	0.00000000000000	19.35911700000000	0.00000000000000	0.00000000000000	0.00000000000000	0.00000000000000	
7.30997600000000	9.04127600000000	717.99610099999995	45.41891000000000	0.21610900000000	0.00000000000000	0.10714600000000	0.00000000000000	0.00000000000000	0.00000000000000	0.00000000000000	0.00000000000000	0.00000000000000	0.00000000000000	19.42003600000000	0.00000000000000	0.00000000000000	0.00000000000000	0.00000000000000	
7.31164400000000	8.62386000000000	719.26315999999997	45.47199700000000	0.21516000000000	0.00000000000000	0.10707500000000	0.00000000000000	0.00000000000000	0.00000000000000	0.00000000000000	0.00000000000000	0.00000000000000	0.00000000000000	19.48163200000000	0.00000000000000	0.00000000000000	0.00000000000000	0.00000000000000	
7.31330200000000	8.20244000000000	720.57796900000005	45.52722000000000	0.21420100000000	0.00000000000000	0.10700300000000	0.00000000000000	0.00000000000000	0.00000000000000	0.00000000000000	0.00000000000000	0.00000000000000	0.00000000000000	19.54379100000000	0.00000000000000	0.00000000000000	0.00000000000000	0.00000000000000	
7.31497000000000	7.77731600000000	721.93895099999997	45.58447000000000	0.21323300000000	0.00000000000000	0.10692900000000	0.00000000000000	0.00000000000000	0.00000000000000	0.00000000000000	0.00000000000000	0.00000000000000	0.00000000000000	19.60639700000000	0.00000000000000	0.00000000000000	0.00000000000000	0.00000000000000	
7.31664100000000	7.34880900000000	723.34448699999996	45.64364500000000	0.21225700000000	0.00000000000000	0.10685300000000	0.00000000000000	0.00000000000000	0.00000000000000	0.00000000000000	0.00000000000000	0.00000000000000	0.00000000000000	19.66933800000000	0.00000000000000	0.00000000000000	0.00000000000000	0.00000000000000	
7.31830200000000	6.91725300000000	724.79291899999998	45.70464400000000	0.21127500000000	0.00000000000000	0.10677700000000	0.00000000000000	0.00000000000000	0.00000000000000	0.00000000000000	0.00000000000000	0.00000000000000	0.00000000000000	19.73249900000000	0.00000000000000	0.00000000000000	0.00000000000000	0.00000000000000	
7.31998600000000	6.48300000000000	726.28255000000001	45.76737400000000	0.21028700000000	0.00000000000000	0.10669800000000	0.00000000000000	0.00000000000000	0.00000000000000	0.00000000000000	0.00000000000000	0.00000000000000	0.00000000000000	19.79577000000000	0.00000000000000	0.00000000000000	0.00000000000000	0.00000000000000	
7.32163900000000	6.04641500000000	727.81165099999998	45.83174600000000	0.20929500000000	0.00000000000000	0.10661800000000	0.00000000000000	0.00000000000000	0.00000000000000	0.00000000000000	0.00000000000000	0.00000000000000	0.00000000000000	19.85903800000000	0.00000000000000	0.00000000000000	0.00000000000000	0.00000000000000	
